HIERARCHY
ROOT Hips
{
	OFFSET 0.000000 0.000000 0.000000
	CHANNELS 6 Xposition Yposition Zposition Zrotation Yrotation Xrotation 
	JOINT LeftUpLeg_virtual
	{
		OFFSET 0.000000 0.000000 0.000000
		CHANNELS 3 Zrotation Yrotation Xrotation
		JOINT LeftUpLeg
		{
			OFFSET 8.479694 -4.795517 -0.379053
			CHANNELS 3 Zrotation Yrotation Xrotation
			JOINT LeftLeg
			{
				OFFSET 0.485052 -32.551468 0.112863
				CHANNELS 3 Zrotation Yrotation Xrotation
				JOINT LeftFoot
				{
					OFFSET 0.438033 -32.635670 -3.012641
					CHANNELS 3 Zrotation Yrotation Xrotation
					JOINT LeftToeBase
					{
						OFFSET 0.970169 -13.225353 11.864223
						CHANNELS 3 Zrotation Yrotation Xrotation
						End Site
						{
							OFFSET 0.000000 0.000000 0.000000
						}
					}
				}
			}
		}
	}
	JOINT RightUpLeg_virtual
	{
		OFFSET 0.000000 0.000000 0.000000
		CHANNELS 3 Zrotation Yrotation Xrotation
		JOINT RightUpLeg
		{
			OFFSET -8.479694 -4.795517 -0.379053
			CHANNELS 3 Zrotation Yrotation Xrotation
			JOINT RightLeg
			{
				OFFSET -0.484100 -32.551483 0.112903
				CHANNELS 3 Zrotation Yrotation Xrotation
				JOINT RightFoot
				{
					OFFSET -0.438985 -32.635651 -3.012681
					CHANNELS 3 Zrotation Yrotation Xrotation
					JOINT RightToeBase
					{
						OFFSET -0.970169 -13.225354 11.864223
						CHANNELS 3 Zrotation Yrotation Xrotation
						End Site
						{
							OFFSET 0.000000 0.000000 0.000000
						}
					}
				}
			}
		}
	}
	JOINT Spine_virtual
	{
		OFFSET 0.000000 0.000000 0.000000
		CHANNELS 3 Zrotation Yrotation Xrotation
		JOINT Spine
		{
			OFFSET 0.000000 7.722015 1.166203
			CHANNELS 3 Zrotation Yrotation Xrotation
			JOINT Spine1
			{
				OFFSET 0.000000 12.024086 0.248766
				CHANNELS 3 Zrotation Yrotation Xrotation
				JOINT Spine2
				{
					OFFSET -0.000000 11.503036 -0.491240
					CHANNELS 3 Zrotation Yrotation Xrotation
					JOINT Neck_virtual
					{
						OFFSET 0.000000 0.000000 0.000000
						CHANNELS 3 Zrotation Yrotation Xrotation
						JOINT Neck
						{
							OFFSET 0.000000 18.430687 -3.123054
							CHANNELS 3 Zrotation Yrotation Xrotation
							JOINT Head
							{
								OFFSET -0.000000 9.051071 1.034021
								CHANNELS 3 Zrotation Yrotation Xrotation
								End Site
								{
									OFFSET 0.000000 0.000000 0.000000
								}
							}
						}
					}
					JOINT LeftShoulder_virtual
					{
						OFFSET 0.000000 0.000000 0.000000
						CHANNELS 3 Zrotation Yrotation Xrotation
						JOINT LeftShoulder
						{
							OFFSET 6.197824 13.665230 -4.064723
							CHANNELS 3 Zrotation Yrotation Xrotation
							JOINT LeftArm
							{
								OFFSET 7.778132 -0.187073 -1.709282
								CHANNELS 3 Zrotation Yrotation Xrotation
								JOINT LeftForeArm
								{
									OFFSET 21.954697 0.000000 -2.041093
									CHANNELS 3 Zrotation Yrotation Xrotation
									JOINT LeftHand
									{
										OFFSET 22.992908 0.000000 -0.870901
										CHANNELS 3 Zrotation Yrotation Xrotation
										End Site
										{
											OFFSET 0.000000 0.000000 0.000000
										}
									}
								}
							}
						}
					}
					JOINT RightShoulder_virtual
					{
						OFFSET 0.000000 0.000000 0.000000
						CHANNELS 3 Zrotation Yrotation Xrotation
						JOINT RightShoulder
						{
							OFFSET -6.197824 13.665230 -4.064723
							CHANNELS 3 Zrotation Yrotation Xrotation
							JOINT RightArm
							{
								OFFSET -7.778132 -0.187073 -1.709282
								CHANNELS 3 Zrotation Yrotation Xrotation
								JOINT RightForeArm
								{
									OFFSET -21.954697 0.000000 -2.041093
									CHANNELS 3 Zrotation Yrotation Xrotation
									JOINT RightHand
									{
										OFFSET -22.992908 0.000000 -0.870901
										CHANNELS 3 Zrotation Yrotation Xrotation
										End Site
										{
											OFFSET 0.000000 0.000000 0.000000
										}
									}
								}
							}
						}
					}
				}
			}
		}
	}
}
MOTION
Frames: 4
Frame Time: 0.033333
28.387110 78.620453 -84.777283 179.988803 -40.320430 179.971031 -1.236529 -0.746114 9.332097 3.646527 -4.114182 -35.935391 10.473132 7.870849 31.507912 -9.724254 -3.244967 -6.586795 0.000000 0.000000 0.000000 1.197294 -1.708417 9.936009 -1.417019 9.906401 -29.616892 -0.023055 5.688450 30.830671 10.434554 8.875839 -13.104230 0.000000 0.000000 0.000000 4.544349 1.069680 -5.870953 -4.007825 -0.892104 -2.027420 -0.827537 -1.739280 13.841126 0.003212 -0.025057 0.009209 -0.953660 -0.559295 14.452465 3.535146 -4.161299 -4.682770 0.000000 0.000000 0.000000 0.521651 0.106953 11.575548 -9.731009 -10.076039 4.332163 -60.557611 -3.148723 -0.651427 -2.039531 -21.330146 1.577920 0.000000 0.000000 0.000000 -3.545009 1.705639 10.970220 28.260514 2.737100 6.762361 49.691993 8.571627 8.122796 -5.185110 20.699465 -3.298648 0.000000 0.000000 0.000000 
28.359030 78.642410 -84.950493 179.735854 -40.196551 -179.901159 -1.274849 -1.173375 9.377052 3.370646 -3.868274 -35.770585 10.592713 8.039345 31.986514 -9.572099 -3.145647 -6.386461 0.000000 0.000000 0.000000 1.119431 -1.762115 9.969830 -1.503287 9.993631 -29.426716 0.530988 6.169394 30.640652 11.185275 9.551663 -12.327030 0.000000 0.000000 0.000000 4.416788 1.065124 -5.900849 -4.032695 -0.903717 -2.036733 -0.839735 -1.615763 13.836066 0.072200 0.069686 0.053167 -0.950590 -0.503555 14.412297 3.562377 -4.226953 -4.700744 0.000000 0.000000 0.000000 0.454291 0.108182 11.579548 -9.588261 -10.121818 4.315170 -60.585445 -3.189747 -0.511619 -2.038793 -21.443973 1.673119 0.000000 0.000000 0.000000 -3.582941 1.650603 10.850764 28.214902 2.775737 6.780158 49.805951 8.847945 8.179693 -5.264572 20.900956 -3.493474 0.000000 0.000000 0.000000 
28.339661 78.638947 -85.157265 179.819852 -40.274330 -179.947754 -1.012494 -1.280445 9.436576 3.351570 -4.343382 -35.785745 10.640184 7.907440 32.109211 -9.093067 -3.094384 -6.408897 0.000000 0.000000 0.000000 1.120453 -1.891301 10.035270 -1.421032 9.927712 -29.282336 0.563874 6.008397 30.465738 11.323376 9.597252 -12.380894 0.000000 0.000000 0.000000 4.459013 0.835639 -5.951507 -3.958948 -0.770876 -2.088431 -0.812072 -1.734003 13.770326 0.009244 0.126440 -0.016902 -0.885808 -0.451462 14.498880 3.602156 -4.089300 -4.669396 0.000000 0.000000 0.000000 0.546522 0.136560 11.609095 -9.612360 -9.999346 4.370112 -60.554538 -3.266262 -0.060728 -1.908719 -21.586593 1.623552 0.000000 0.000000 0.000000 -3.524100 1.683055 10.976735 28.107304 2.978200 6.827101 49.951441 9.061364 8.066003 -5.257303 21.138483 -3.504430 0.000000 0.000000 0.000000 
28.319309 78.612656 -85.365982 179.956524 -40.413113 179.994022 -0.407508 -1.460070 9.532016 2.809507 -4.481153 -35.852042 11.065210 8.015840 32.213645 -9.315177 -3.203061 -6.355848 0.000000 0.000000 0.000000 1.197621 -2.003206 10.234875 -1.284438 9.808856 -29.351082 0.604316 6.061051 30.469669 11.304449 9.526242 -12.579600 0.000000 0.000000 0.000000 4.526453 0.743480 -5.942285 -3.866237 -0.697859 -2.167287 -0.742001 -1.681887 13.748607 0.002254 0.022117 -0.029682 -0.869018 -0.464857 14.444827 3.649602 -4.166675 -4.557230 0.000000 0.000000 0.000000 0.569577 0.186223 11.476827 -9.608024 -9.862987 4.401812 -60.531759 -3.461526 0.580020 -1.899189 -21.646278 1.840199 0.000000 0.000000 0.000000 -3.537272 1.739541 10.890689 28.092408 3.177734 6.980365 50.135914 9.075147 7.905666 -5.195400 21.364509 -3.621015 0.000000 0.000000 0.000000 
